# xmcd
#
# Track frame offsets:
#	150
#	10975
#	26350
#	41625
#	64122
#	82547
#	94870
#	116882
#	158985
#	181245
#	217477
#	226965
#	236622
#	247102
#
# Disc length: 3423
#
# Revision: 2
# Processed by: cddbd v1.5.1PL0 Copyright (c) Steve Scherf et al.
# Submitted via: DiscPlay 4.0.4
# Normalized: r1:DSETVAR1,TDELIM( - )
#
DISCID=b80d5d0e
DTITLE=Various Artist - Grandes Guitarristas de Todos os Tempos
DYEAR=1900
DGENRE=
TTITLE0=The Yardbirds - Boom Boom
TTITLE1=The Yardbirds - Train Kept A-Rollin
TTITLE2=Albert King - Born Under A Bad Sign
TTITLE3=B. B. King - The Thrill Is Gone
TTITLE4=Robert Cray - The Score
TTITLE5=Elmore James - Dust My Broom
TTITLE6=Santana - Soul Sacrifice
TTITLE7=Santana - Jingo
TTITLE8=John Mayall - All Your Love
TTITLE9=Jimi Hendrix - Red House
TTITLE10=Eric Clapton - Tribute To Elmore
TTITLE11=Eric Clapton - I'm Your Witch Doctor
TTITLE12=The Yardbirs - Shapes Of Things
TTITLE13=John Lee Hooker - Dimples
EXTD=
EXTT0=
EXTT1=
EXTT2=
EXTT3=
EXTT4=
EXTT5=
EXTT6=
EXTT7=
EXTT8=
EXTT9=
EXTT10=
EXTT11=
EXTT12=
EXTT13=
PLAYORDER=
